PathFileType	4	(X/Y/Z)	G:\Shared drives\HPL_Drive\Nord Sprinting Study\Kristen_Nord_test\Trimmed_Nord000005.trc
DataRate	CameraRate	NumFrames	NumMarkers	Units	OrigDataRate	OrigDataStartFrame	OrigNumFrames
200.00	200.00	      4	52	mm	200.00	1	      2491
Frame#	Time	C7			R_Shoulder			L_Shoulder			Sternum			R_humerus			R_elbow_med			R_elbow_lat			R_forearm			R_wrist_radius			R_wrist_ulna			L_humerus			L_elbow_med			L_elbow_lat			L_forearm			L_wrist_radius			L_wrist_ulna			r.ASIS			r.PSIS			r_IC			L.ASIS			L.PSIS			l_IC			r_thigh1			r_thigh2			r_thigh3			r_thigh4			r_thigh5			r_knee			r_mknee			r_shank_antsup			r_sh2			r_sh3			r_sh4			r_ankle			r_mankle			r_calc			r_5meta			r_toe			L_thigh1			L_thigh2			L_thigh3			L_thigh4			L_knee			L_mknee			L_shank_antsup			L_sh2			L_sh3			L_ankle			L_mankle			L_calc			L_5meta			L_toe			
		X1	Y1	Z1	X2	Y2	Z2	X3	Y3	Z3	X4	Y4	Z4	X5	Y5	Z5	X6	Y6	Z6	X7	Y7	Z7	X8	Y8	Z8	X9	Y9	Z9	X10	Y10	Z10	X11	Y11	Z11	X12	Y12	Z12	X13	Y13	Z13	X14	Y14	Z14	X15	Y15	Z15	X16	Y16	Z16	X17	Y17	Z17	X18	Y18	Z18	X19	Y19	Z19	X20	Y20	Z20	X21	Y21	Z21	X22	Y22	Z22	X23	Y23	Z23	X24	Y24	Z24	X25	Y25	Z25	X26	Y26	Z26	X27	Y27	Z27	X28	Y28	Z28	X29	Y29	Z29	X30	Y30	Z30	X31	Y31	Z31	X32	Y32	Z32	X33	Y33	Z33	X34	Y34	Z34	X35	Y35	Z35	X36	Y36	Z36	X37	Y37	Z37	X38	Y38	Z38	X39	Y39	Z39	X40	Y40	Z40	X41	Y41	Z41	X42	Y42	Z42	X43	Y43	Z43	X44	Y44	Z44	X45	Y45	Z45	X46	Y46	Z46	X47	Y47	Z47	X48	Y48	Z48	X49	Y49	Z49	X50	Y50	Z50	X51	Y51	Z51	X52	Y52	Z52	

1	0.000	1218.06201	253.02872	1284.25879	1334.10815	306.40970	1293.93848	1081.87463	287.59604	1299.30481	1203.48669	388.03384	1255.28967	1510.76624	295.60965	1270.37695	1642.59143	347.09070	1201.19556	1641.68542	275.73331	1233.63770	1636.46448	315.02176	1358.41833	1605.04041	385.22412	1450.79626	1645.74780	362.24869	1462.92908	882.97919	244.78404	1264.75891	765.46191	288.07471	1193.76831	768.90222	216.70982	1222.30774	805.87891	270.55527	1356.42407	845.60999	332.42804	1426.03564	795.02277	311.36118	1441.57458	1324.54883	428.41025	786.33356	1284.04980	247.30252	849.38214	1364.65442	356.29651	869.77850	1085.05530	410.32828	783.31750	1168.06250	241.99747	843.32922	1062.53845	344.22052	859.50378	1384.77185	393.59207	526.45453	1381.52502	389.60040	411.51483	1395.69629	341.42932	384.18027	1393.96790	285.89127	532.31018	1373.65662	283.74942	414.43936	1378.76819	341.24026	305.47360	1250.24780	326.57971	312.24255	1400.85706	210.46039	291.32086	1382.19800	92.19762	290.06024	1388.93994	206.82137	369.13794	1373.74036	92.23808	371.86526	1364.07422	-76.21587	328.78796	1288.75964	-57.65251	286.39462	1304.12891	-112.20212	372.13132	1394.33862	-134.46019	220.19858	1360.34631	-104.71031	169.63521	1017.23419	380.29474	531.75043	1009.34369	377.47531	392.03540	1019.03540	260.18863	537.42889	1022.18396	263.20633	401.92560	997.00555	303.53409	332.41357	1123.39197	312.62720	303.67825	985.87610	194.43387	310.22543	1015.67755	197.33189	393.31668	1033.98853	78.37156	382.28366	1036.89429	-98.32520	335.41608	1105.34363	-63.69271	289.39874	1092.38367	-111.69015	378.85855	1025.29761	-168.50349	216.00204	1055.70728	-127.24431	165.99179	
2	0.005	1218.08386	253.02843	1284.24670	1334.10828	306.38474	1293.98157	1081.89185	287.59860	1299.31091	1203.46436	388.06094	1255.29211	1510.78833	295.59561	1270.32336	1642.59973	347.06754	1201.17163	1641.69519	275.72720	1233.64697	1636.48108	315.02109	1358.42822	1604.91772	384.70453	1450.43518	1645.50562	361.96527	1462.66235	882.98340	244.73996	1264.72070	765.47632	288.06039	1193.75525	768.93689	216.70782	1222.28894	805.87140	270.58459	1356.42981	845.59338	332.38129	1426.02148	795.04321	311.36880	1441.53027	1324.56604	428.41940	786.34973	1284.05859	247.31375	849.40820	1364.68005	356.29376	869.75433	1085.07080	410.33087	783.25739	1168.08606	242.00685	843.32635	1062.56177	344.21021	859.52631	1384.80298	393.59381	526.42023	1381.51672	389.62622	411.49081	1395.70789	341.44632	384.16248	1393.97119	285.86917	532.29260	1374.00659	283.87448	414.26208	1378.74780	341.24298	305.43726	1250.26025	326.56818	312.22153	1400.96729	210.84851	290.95853	1382.24939	92.17523	290.05945	1388.99854	206.85129	369.10846	1373.75842	92.28387	371.86404	1364.11035	-76.22095	328.72223	1288.74536	-57.65256	286.47662	1304.18298	-112.21413	372.17703	1394.38062	-134.48917	220.12759	1360.31201	-104.67731	169.67963	1017.22662	380.25400	531.75879	1009.31885	377.48380	392.03482	1019.06812	260.14911	537.45007	1022.17670	263.19592	401.95612	997.01788	303.54834	332.39587	1123.39819	312.64233	303.66263	984.86475	193.79088	309.57358	1015.66516	197.29979	393.29422	1033.98254	78.35084	382.26047	1036.89258	-98.33644	335.40906	1105.31897	-63.69974	289.36102	1092.30786	-111.72552	378.68976	1025.30115	-168.53331	215.99352	1055.67578	-127.25494	166.07797	
3	0.010	1218.09998	253.05232	1284.25623	1334.13342	306.37631	1293.91089	1081.89099	287.57971	1299.30078	1203.50696	388.07068	1255.27502	1510.80164	295.59805	1270.34473	1642.63159	347.08124	1201.14270	1641.74707	275.73535	1233.63989	1636.49280	315.02374	1358.40686	1605.04236	385.22287	1450.80090	1645.78625	362.23541	1462.90076	883.00110	244.76399	1264.72681	765.46716	288.08075	1193.75818	768.94067	216.73512	1222.24829	805.91028	270.57132	1356.39282	845.63428	332.41071	1425.99597	795.03571	311.38092	1441.52942	1324.58264	428.44412	786.34552	1284.09753	247.29791	849.35657	1364.69885	356.31110	869.76227	1085.10059	410.34152	783.25739	1168.10657	241.98401	843.33081	1062.57837	344.19592	859.50500	1384.76501	393.60303	526.41681	1381.54163	389.60028	411.51865	1395.33032	341.45193	383.73996	1394.02612	285.86774	532.28058	1373.90613	283.75723	414.43658	1378.76501	341.24808	305.45129	1250.27026	326.56647	312.24384	1400.96899	210.87010	290.96503	1382.23633	92.19342	290.04895	1389.02295	206.84496	369.10049	1373.73584	92.25365	371.87253	1364.11792	-76.20982	328.70978	1288.74524	-57.66637	286.47403	1304.17065	-112.21566	372.16367	1394.39172	-134.46739	220.15442	1360.37500	-104.72362	169.58060	1017.25256	380.29443	531.76697	1009.27039	377.54559	391.93362	1019.09613	260.18890	537.44397	1022.20874	263.19116	401.89969	997.04260	303.54028	332.36243	1123.43665	312.65976	303.65829	985.89728	194.48920	310.18106	1015.65930	197.38683	393.33801	1034.00708	78.34582	382.27921	1036.88098	-98.32473	335.37228	1105.34131	-63.70329	289.36401	1092.32593	-111.74034	378.64243	1025.30188	-168.51271	215.96841	1055.70471	-127.26411	166.02292	
4	0.015	1218.09412	253.02589	1284.26172	1334.14490	306.37894	1293.93884	1081.94458	287.54535	1299.30383	1203.55579	388.10284	1255.50439	1510.82739	295.60330	1270.31299	1642.63953	347.07877	1201.14148	1641.75720	275.73807	1233.60486	1636.52734	315.00208	1358.42114	1605.04541	385.24808	1450.79712	1645.79895	362.24228	1462.90015	883.00751	244.74957	1264.71729	765.48969	288.07993	1193.77124	768.95490	216.73018	1222.24902	805.88263	270.58310	1356.43335	845.63452	332.41986	1426.00854	795.11041	311.40244	1441.47986	1324.51428	428.43118	786.38885	1284.11292	247.33005	849.35193	1364.71716	356.30750	869.73883	1085.12317	410.37567	783.22473	1168.16895	242.00337	843.32458	1062.61633	344.18918	859.50891	1384.79297	393.60248	526.36255	1381.53748	389.63904	411.51608	1395.33423	341.45407	383.72461	1393.98621	285.87234	532.28119	1373.71533	283.76355	414.43362	1378.77600	341.23291	305.40982	1250.27039	326.57623	312.22943	1400.96802	210.85078	290.94629	1382.22717	92.19798	290.02115	1389.00269	206.83636	369.11536	1373.81494	92.25108	371.85254	1364.11841	-76.21420	328.67215	1288.77417	-57.65316	286.45877	1304.18982	-112.23461	372.16769	1394.37402	-134.45233	220.07417	1360.43335	-104.72288	169.52780	1017.22766	380.26428	531.78082	1009.40143	377.56836	392.00601	1019.16357	260.16052	537.46490	1022.20349	263.23660	401.92740	997.16180	303.37637	332.17133	1123.40820	312.67978	303.66049	984.84302	193.69011	309.61761	1015.68005	197.35475	393.29550	1034.00024	78.35207	382.25339	1036.88928	-98.35883	335.43427	1105.35925	-63.71518	289.36737	1092.27869	-111.73045	378.64151	1025.32300	-168.55370	216.03723	1055.69067	-127.24896	166.00591	
